<svg width="74" height="74" viewBox="0 0 74 74" fill="none" xmlns="http://www.w3.org/2000/svg">
<g clip-path="url(#clip0_12377_13928)">
<path fill-rule="evenodd" clip-rule="evenodd" d="M59.2588 9.82812L65.4424 13.397L59.2588 16.9659V13.897H46.946C44.0173 13.9822 41.237 15.205 39.1949 17.3062C37.1511 19.4089 36.0078 22.2257 36.0078 25.1581C36.0078 28.0904 37.1511 30.9072 39.1949 33.01C41.2362 35.1103 44.0152 36.333 46.9426 36.4191H74.0005C74.2767 36.4191 74.5005 36.6429 74.5005 36.9191C74.5005 37.1952 74.2767 37.4191 74.0005 37.4191H46.9489C46.9422 37.4192 46.9356 37.4192 46.9289 37.4191H46.9209C46.9086 37.4191 46.8964 37.4186 46.8844 37.4178C43.7077 37.3169 40.6936 35.9869 38.4778 33.707C36.2526 31.4175 35.0078 28.3507 35.0078 25.1581C35.0078 21.9655 36.2526 18.8986 38.4778 16.6092C40.5995 14.4261 43.4531 13.1139 46.4806 12.9179C46.526 12.9043 46.5742 12.897 46.624 12.897H46.9387H46.9391H59.2588V9.82812ZM47.8938 19.0785C47.9618 19.0785 48.0267 19.0649 48.0858 19.0403H49.0968C49.373 19.0403 49.5968 18.8164 49.5968 18.5403C49.5968 18.2641 49.373 18.0403 49.0968 18.0403H47.6846C47.6055 18.0403 47.5308 18.0586 47.4643 18.0913C45.7079 18.196 44.0445 18.94 42.7933 20.1912C41.4406 21.5439 40.6807 23.3786 40.6807 25.2916C40.6807 27.2047 41.4406 29.0393 42.7933 30.3921C44.146 31.7448 45.9807 32.5048 47.8938 32.5048C47.9617 32.5048 48.0265 32.4912 48.0855 32.4667H64.3267C64.6028 32.4667 64.8267 32.2428 64.8267 31.9667C64.8267 31.6905 64.6028 31.4667 64.3267 31.4667H47.8564C47.7922 31.4667 47.7308 31.4788 47.6743 31.5009C46.1062 31.4455 44.6138 30.7983 43.5004 29.685C42.3352 28.5198 41.6807 26.9395 41.6807 25.2916C41.6807 23.6438 42.3352 22.0635 43.5004 20.8983C44.6656 19.7331 46.2459 19.0785 47.8938 19.0785ZM-0.499036 23.0802C-0.511554 23.282 -0.401316 23.4714 -0.219733 23.5603L-0.218665 23.5608L-0.209193 23.5656C-0.199958 23.5703 -0.184895 23.578 -0.16409 23.5891C-0.122479 23.6111 -0.0578924 23.6463 0.0289909 23.6961C0.202752 23.7957 0.465734 23.9541 0.812497 24.1844C1.506 24.6447 2.53483 25.3924 3.85543 26.5314C6.49641 28.8093 10.305 32.6529 14.932 38.8949C20.14 46.0322 22.8312 54.6966 22.5834 63.5286C22.5788 63.6947 22.6569 63.8522 22.792 63.949C22.9271 64.0458 23.1014 64.0692 23.2572 64.0114L49.7468 54.1828C56.5606 51.66 61.6582 51.67 65.0309 52.2911C66.7194 52.6021 67.9815 53.0673 68.8155 53.4503C69.2326 53.6419 69.5428 53.8129 69.7457 53.9339C69.8472 53.9944 69.9219 54.0424 69.9697 54.0742L70.0017 54.0957L70.0212 54.1092L70.0319 54.1168L70.033 54.1175C70.0327 54.1173 70.0325 54.1171 70.328 53.7139L70.5517 54.1611C70.7012 54.0863 70.8035 53.9417 70.8242 53.7758C70.8449 53.6099 70.7813 53.4447 70.6548 53.3354C66.4162 49.6759 62.6817 45.4702 59.5492 40.8286C59.3947 40.5997 59.0839 40.5393 58.855 40.6938C58.6261 40.8483 58.5658 41.1591 58.7203 41.388C61.2956 45.204 64.2715 48.7299 67.5952 51.9064C66.9149 51.6853 66.1203 51.475 65.212 51.3077C61.6545 50.6525 56.3742 50.6626 49.3992 53.2451L23.5971 62.8186C23.6852 54.0208 20.9328 45.4215 15.7387 38.3038L15.7364 38.3008C11.0696 32.0049 7.21117 28.1052 4.50856 25.7742C3.15727 24.6087 2.09511 23.8355 1.36558 23.3512C1.314 23.317 1.26408 23.2842 1.21584 23.2528C1.60674 23.1358 2.09995 22.9935 2.68463 22.835C4.29907 22.3973 6.60955 21.837 9.3882 21.348C14.9502 20.3692 22.3654 19.6804 29.8211 20.819C30.0941 20.8607 30.3492 20.6732 30.3909 20.4002C30.4325 20.1273 30.2451 19.8722 29.9721 19.8305C22.3698 18.6694 14.8367 19.3738 9.21488 20.3631C6.40163 20.8582 4.06135 21.4257 2.42299 21.8698C1.60369 22.0919 0.95959 22.2832 0.519276 22.4194C0.299109 22.4875 0.129865 22.5418 0.0151154 22.5793C-0.0422603 22.598 -0.0860149 22.6126 -0.115702 22.6225L-0.149627 22.6339L-0.158572 22.6369L-0.162118 22.6382C-0.162335 22.6382 -0.162118 22.6382 5.00679e-06 23.1111L-0.162118 22.6382C-0.353514 22.7038 -0.486508 22.8782 -0.499036 23.0802Z" fill="black"/>
</g>
<defs>
<clipPath id="clip0_12377_13928">
<rect width="74" height="74" fill="white"/>
</clipPath>
</defs>
</svg>
