<svg width="74" height="74" viewBox="0 0 74 74" fill="none" xmlns="http://www.w3.org/2000/svg">
<path fill-rule="evenodd" clip-rule="evenodd" d="M16.0361 4.20505C15.8793 3.9852 15.5739 3.93411 15.3541 4.09095C15.1342 4.24778 15.0831 4.55315 15.24 4.773C17.2931 7.6511 19.5679 10.3645 22.0434 12.8885C22.0503 12.8955 22.0573 12.9023 22.0645 12.9088C29.4739 19.6101 38.6539 24.0395 48.5104 25.6691C48.7769 25.7131 49.0286 25.5329 49.0726 25.2664C49.1167 25 48.9364 24.7483 48.67 24.7042C39.094 23.121 30.1688 18.8446 22.9365 12.3777C23.8876 11.8741 24.9339 11.5641 26.0379 11.3019C26.4194 11.2113 26.8136 11.1253 27.2129 11.0383C27.9814 10.8707 28.7685 10.699 29.5201 10.4823L29.5301 10.4801L27.4596 12.8204C27.2945 13.007 27.2961 13.2878 27.4632 13.4725L27.6465 13.6751C27.7696 13.8111 27.9584 13.8668 28.1355 13.8194C28.7067 13.6666 29.2681 13.4704 29.8117 13.2768L29.9705 13.2202C30.4633 13.0444 30.9411 12.8739 31.4215 12.7315C32.4789 12.4183 33.4935 12.2596 34.5395 12.4997C36.5202 13.0284 38.3232 14.0686 39.7699 15.5114L37.82 16.692C37.6383 16.802 37.5484 17.0167 37.5976 17.2234C37.6468 17.4301 37.8237 17.5814 38.0355 17.5978C38.9888 17.6716 39.9464 17.6716 40.8996 17.5978L40.9019 17.5976C42.4439 17.4708 43.9881 17.8143 45.3309 18.5826C46.8811 19.5343 48.2369 20.7158 49.5697 21.9935C50.0621 22.4657 50.5566 22.9562 51.0571 23.4529C51.7362 24.1267 52.4266 24.8116 53.1384 25.4768C49.2752 27.5102 45.5297 28.6632 41.8784 28.6298C38.0493 28.5947 34.2787 27.2546 30.5395 24.1725C30.3615 24.0258 30.1053 24.0234 29.9246 24.1667C29.7439 24.31 29.6879 24.5601 29.7902 24.7668C30.1069 25.4064 30.4232 26.0451 30.7573 26.7272L30.5072 26.6242C30.2211 26.5066 29.9402 26.391 29.6723 26.2762C28.9286 25.9577 28.2444 25.6291 27.6543 25.2229C27.0683 24.8195 26.5836 24.3452 26.2335 23.7385C25.8838 23.1326 25.6532 22.3689 25.6125 21.365C25.6061 21.2053 25.5219 21.0589 25.3873 20.9728C25.2526 20.8867 25.0843 20.8719 24.9367 20.9332L24.5411 21.0972C24.367 21.1694 24.2499 21.3352 24.24 21.5235C24.2075 22.1487 24.1705 22.7691 24.1261 23.5064C23.6915 23.0006 23.2867 22.4696 22.9138 21.9159C22.5209 20.9516 22.2128 19.9548 21.9931 18.9369C21.9425 18.7025 21.7294 18.5394 21.4899 18.5518C21.2504 18.5641 21.0553 18.7484 21.0291 18.9867L20.9211 19.9701C20.6466 19.3595 20.4597 18.7106 20.3679 18.0425C20.2106 16.8969 20.3379 15.7302 20.7387 14.6455C20.8324 14.3922 20.7029 14.1109 20.4496 14.0173C20.1963 13.9237 19.915 14.0532 19.8214 14.3065C19.3649 15.5419 19.2198 16.8708 19.399 18.1756C19.5783 19.4804 20.0763 20.721 20.849 21.7875C20.9676 21.9512 21.1747 22.0251 21.3701 21.9733C21.5634 21.9222 21.7058 21.7587 21.7303 21.5608C21.8237 21.8202 21.9229 22.0776 22.0277 22.3329C22.0401 22.3631 22.0556 22.392 22.0737 22.4191C22.6986 23.3527 23.4091 24.2259 24.1961 25.0275C24.3315 25.1654 24.5355 25.2106 24.7165 25.1428C24.8975 25.075 25.0216 24.907 25.0331 24.714C25.0524 24.3912 25.0705 24.0915 25.0876 23.8091L25.0976 23.643C25.1831 23.8478 25.2797 24.0423 25.3865 24.2273C25.8257 24.9884 26.4242 25.5634 27.0998 26.0285C27.7714 26.4907 28.5273 26.8497 29.2871 27.1752C29.5843 27.3025 29.8769 27.4227 30.1671 27.5419L30.1672 27.542L30.1672 27.542L30.1673 27.542L30.1674 27.5421L30.1675 27.5421L30.1676 27.5421L30.1676 27.5422L30.1677 27.5422L30.1678 27.5422C30.6383 27.7355 31.1022 27.9261 31.5685 28.1399C31.7559 28.2259 31.9772 28.185 32.1216 28.0377C32.2659 27.8904 32.3023 27.6684 32.2126 27.4827C31.9935 27.0295 31.7848 26.6014 31.5824 26.1887C34.9444 28.5156 38.3725 29.5757 41.8694 29.6077C45.9339 29.6449 50.0463 28.293 54.2102 26.0111C54.349 25.9351 54.4424 25.7966 54.4609 25.6394C54.4794 25.4823 54.4207 25.3259 54.3034 25.2197C53.4217 24.4218 52.5989 23.605 51.7742 22.7864L51.774 22.7863L51.7739 22.7861L51.7738 22.786L51.7737 22.7859L51.7735 22.7858L51.7734 22.7856L51.7733 22.7855L51.7732 22.7854L51.7731 22.7853C51.2695 22.2855 50.7653 21.7849 50.2465 21.2876C48.8937 19.9907 47.4772 18.7517 45.836 17.7452L45.8236 17.7378C44.308 16.8687 42.5643 16.4799 40.823 16.6228C40.4622 16.6507 40.1009 16.6675 39.7394 16.6731L40.7968 16.0329C40.9216 15.9573 41.0062 15.8299 41.0273 15.6854C41.0485 15.541 41.004 15.3947 40.906 15.2864C39.2681 13.4771 37.1416 12.1803 34.7832 11.5526L34.7677 11.5487C33.4813 11.251 32.2741 11.459 31.1437 11.7939C30.6361 11.9442 30.1326 12.1239 29.6439 12.2984L29.6438 12.2984L29.6437 12.2984L29.6437 12.2984L29.6437 12.2984L29.4836 12.3555C29.3338 12.4089 29.1853 12.4615 29.0376 12.5126L31.1543 10.1201C31.2866 9.9706 31.3147 9.75569 31.2253 9.57718C31.1359 9.39868 30.947 9.29243 30.7481 9.30876C30.2579 9.34901 29.7711 9.42338 29.2913 9.53133C29.2817 9.53349 29.2722 9.53594 29.2627 9.53868C28.5356 9.74909 27.8031 9.90856 27.0521 10.0721L27.052 10.0721C26.6448 10.1608 26.2321 10.2506 25.8119 10.3504C24.6409 10.6285 23.4561 10.9758 22.3606 11.5771C22.311 11.6043 22.268 11.6389 22.2322 11.6787C19.989 9.34092 17.9181 6.84318 16.0361 4.20505ZM68.9871 41.1544C68.6676 41.0833 68.2847 41.0818 68.0195 41.1112L68.0138 41.1119C67.6875 41.1442 67.3633 41.1956 67.043 41.2658C66.6841 41.3534 66.2813 41.6266 65.8601 42.0584C65.4449 42.4841 65.053 43.0211 64.7117 43.5589C64.3731 44.0924 64.0924 44.6137 63.8956 45.0036C64.4435 45.0087 64.987 45.1173 65.4971 45.3252C65.6202 45.3754 65.7175 45.4736 65.7667 45.597C65.8159 45.7205 65.8127 45.8587 65.7579 45.9798L65.7575 45.9808L65.6557 46.2057C65.5905 46.3499 65.4971 46.5566 65.3845 46.8063C65.1592 47.3058 64.857 47.9775 64.5491 48.6661C64.2411 49.355 63.9279 50.06 63.6804 50.6266C63.4268 51.2073 63.2563 51.6113 63.2193 51.7222C63.1935 51.7997 63.1541 51.8639 63.1292 51.902C63.1002 51.9464 63.0665 51.9915 63.0318 52.035C62.9624 52.1223 62.8726 52.2241 62.7692 52.3354C62.5615 52.5591 62.2789 52.8429 61.9475 53.1639C61.2835 53.807 60.4073 54.6155 59.5052 55.4226C58.9871 55.8862 58.4593 56.3503 57.9568 56.7836C58.1116 56.7468 58.2705 56.7084 58.4306 56.6688C59.0203 56.5232 59.6217 56.3635 60.1105 56.2101C60.3554 56.1332 60.5649 56.0602 60.7274 55.9935C60.8086 55.9602 60.8732 55.9305 60.922 55.9049C60.9327 55.8993 60.9422 55.8942 60.9506 55.8894C60.9613 55.8834 60.9703 55.878 60.9777 55.8733C60.9905 55.8653 60.9957 55.8611 60.9957 55.8611C61.0396 55.8247 61.143 55.7195 61.3092 55.5319C61.4674 55.3534 61.6631 55.1227 61.8836 54.8566C62.0587 54.6453 62.2481 54.4133 62.4451 54.1696C62.4796 54.0328 62.5726 53.9149 62.7019 53.8508C62.9221 53.5764 63.1478 53.2928 63.3702 53.0117C63.8841 52.3625 64.3789 51.729 64.7453 51.2576C64.9285 51.0219 65.0795 50.8269 65.1847 50.6909L65.2117 50.656C65.2311 50.5722 65.2727 50.4928 65.3358 50.4274C65.356 50.3655 65.3807 50.2904 65.4091 50.2042L65.4316 50.1362C65.5316 49.834 65.6716 49.4163 65.8318 48.9541C66.15 48.0357 66.5545 46.9212 66.8831 46.1941C67.2067 45.4782 67.8535 44.1803 68.4145 43.0703C68.696 42.5133 68.9575 42.0005 69.1486 41.627L69.3273 41.2784C69.2627 41.238 69.1574 41.1923 68.9871 41.1544ZM63.2637 54.7126C63.0438 54.9851 62.8317 55.2452 62.6366 55.4806C62.413 55.7505 62.2096 55.9905 62.0411 56.1805C61.8808 56.3615 61.73 56.5227 61.6194 56.6143C61.4804 56.7295 61.2827 56.8228 61.0985 56.8983C60.9001 56.9797 60.6615 57.0622 60.4034 57.1432C59.8863 57.3055 59.2623 57.4708 58.6651 57.6183C58.0664 57.7661 57.4881 57.8976 57.0599 57.9921C56.8456 58.0394 56.6686 58.0774 56.545 58.1037L56.4016 58.134L56.3636 58.1419L56.3512 58.1445C56.3512 58.1445 56.3511 58.1445 56.3482 58.1312L56.3475 58.1317L56.3502 58.1447C56.3421 58.1464 56.334 58.1478 56.3259 58.1491C56.1602 58.2821 56.0058 58.4034 55.8657 58.5104C55.5845 58.7251 55.3338 58.9032 55.1578 58.9959C55.0786 59.0376 54.9831 59.0691 54.9023 59.0931C54.8127 59.1198 54.7047 59.1475 54.5822 59.1763C54.3368 59.234 54.015 59.3 53.6303 59.3727C52.86 59.5185 51.8194 59.6949 50.5958 59.8906C48.1475 60.2822 44.953 60.7534 41.6933 61.2149C35.182 62.1368 28.38 63.0246 26.7466 63.1612C24.9659 63.3084 22.3732 64.1664 19.3166 65.496C16.2749 66.8191 12.8233 68.5865 9.34233 70.5124C9.10602 70.6431 8.80848 70.5575 8.67774 70.3212C8.54701 70.0849 8.63259 69.7874 8.86889 69.6566C12.3643 67.7228 15.8457 65.9393 18.9265 64.5992C21.9923 63.2656 24.7119 62.3481 26.6655 62.1866C28.2654 62.0528 35.0344 61.17 41.5562 60.2466C44.8134 59.7854 48.0013 59.3152 50.4413 58.9249C51.6618 58.7297 52.6918 58.555 53.4485 58.4118C53.8274 58.3401 54.1333 58.2772 54.3585 58.2243C54.4713 58.1978 54.5592 58.1748 54.6237 58.1557C54.6706 58.1418 54.6943 58.1329 54.7022 58.1299L54.7054 58.1288L54.702 58.1307C54.7961 58.0811 54.9869 57.951 55.2722 57.7332C55.548 57.5225 55.888 57.2488 56.2703 56.9312C57.0345 56.2965 57.957 55.4955 58.8531 54.6938C59.7494 53.8919 60.6155 53.0926 61.2671 52.4614C61.5935 52.1452 61.862 51.8752 62.0525 51.6701C62.1482 51.5669 62.2192 51.4856 62.2665 51.4261C62.2845 51.4036 62.2967 51.3871 62.3044 51.376C62.3726 51.187 62.5575 50.7543 62.7842 50.2352C63.0334 49.6647 63.3479 48.9567 63.6563 48.267C63.9648 47.577 64.2674 46.9044 64.493 46.4043L64.6418 46.0744C64.2716 45.9856 63.8878 45.9599 63.5067 45.9995C62.9628 46.0561 62.441 46.2441 61.9861 46.5472C61.304 47.1106 60.6926 48.0023 60.1907 48.9085C60.0249 49.2078 59.8738 49.5036 59.7383 49.783C59.724 49.8287 59.7031 49.8719 59.6766 49.9112C59.456 50.3736 59.2801 50.7837 59.1529 51.0799L59.1529 51.08L59.1134 51.1721C59.0764 51.2582 59.0155 51.3317 58.9379 51.3842L55.6957 53.5745C55.6266 53.6213 55.5466 53.6495 55.4634 53.6566L55.2868 53.6717C55.1737 53.6815 55.0113 53.6955 54.814 53.7129C54.4196 53.7475 53.8861 53.7951 53.33 53.8468C52.2019 53.9518 51.0251 54.0702 50.686 54.1327C50.6703 54.1356 50.6544 54.1377 50.6385 54.1391C49.8177 54.2084 48.9202 54.0709 47.8967 53.8373C47.2627 53.6925 46.5536 53.504 45.7656 53.2945C45.2876 53.1674 44.7807 53.0326 44.2439 52.8953C41.38 52.1622 37.5056 51.3101 31.972 50.9556C31.7025 50.9383 31.498 50.7058 31.5153 50.4363C31.5325 50.1668 31.765 49.9623 32.0345 49.9796C37.6458 50.3391 41.5825 51.2045 44.4864 51.9478C45.0471 52.0914 45.5635 52.2287 46.0437 52.3564C46.8158 52.5618 47.4946 52.7423 48.1143 52.8838C49.1035 53.1096 49.8741 53.2183 50.5344 53.1664C50.9541 53.0932 52.1613 52.9734 53.2394 52.8731C53.7977 52.8211 54.333 52.7734 54.7285 52.7386C54.9263 52.7213 55.0893 52.7072 55.2028 52.6974L55.2536 52.693L58.2714 50.6542C58.3156 50.5513 58.3659 50.4343 58.4221 50.3058C58.2627 50.3372 58.0889 50.3713 57.9053 50.4071C57.7911 50.4293 57.6729 50.4523 57.5521 50.4756C57.5073 50.4913 57.46 50.5005 57.4116 50.5026C56.6951 50.6403 55.8998 50.7886 55.2493 50.8985C54.0756 51.1829 52.9294 51.5694 51.8238 52.0536C51.8968 52.2778 51.7986 52.5282 51.5821 52.6395C51.3419 52.7629 51.0471 52.6682 50.9237 52.428C50.876 52.3353 50.8257 52.2441 50.7729 52.1546C50.7417 52.1198 50.715 52.08 50.6942 52.0355C50.6895 52.0254 50.6851 52.0153 50.6811 52.005C50.3102 51.4221 49.8281 50.916 49.2608 50.5165C46.3361 49.1526 43.308 48.0222 40.2049 47.136C40.1057 47.1077 40.018 47.0487 39.9543 46.9675C39.9017 46.9003 39.848 46.8342 39.7933 46.769C39.6616 46.7133 39.5559 46.6007 39.5137 46.4541C38.4847 45.3579 37.1499 44.5873 35.675 44.2476C35.4118 44.187 35.2476 43.9245 35.3083 43.6613C35.3689 43.3982 35.6314 43.234 35.8945 43.2946C37.5481 43.6755 39.0457 44.5363 40.2038 45.7605L40.4254 45.7052C40.7672 45.6195 41.2337 45.5012 41.7326 45.3703C42.7432 45.1052 43.8477 44.7986 44.3428 44.6078L44.3437 44.6075C45.8566 44.0278 46.9342 43.3623 47.5774 42.7082C48.2212 42.0534 48.3707 41.4812 48.237 41.0229C48.2033 40.9073 48.0492 40.7254 47.5955 40.5533C47.1675 40.3909 46.5911 40.2839 45.9549 40.2285C44.6757 40.117 43.2996 40.2247 42.678 40.393L42.6688 40.3955L42.6688 40.3954C42.417 40.4584 42.0252 40.6611 41.4941 40.9572C41.4202 40.9985 41.3443 41.041 41.2667 41.0846C40.8173 41.3367 40.312 41.6203 39.8121 41.851C39.8067 41.8535 39.8012 41.8559 39.7957 41.8582C39.7884 41.8613 39.7811 41.8641 39.7736 41.8668C38.7051 42.2537 37.6016 42.5362 36.4786 42.7104C36.4466 42.7154 36.4143 42.7172 36.3821 42.7157C32.8001 42.558 29.2282 43.2035 25.928 44.6049C25.1385 44.9629 24.4248 45.6589 23.8168 46.4374C23.2122 47.2114 22.7451 48.023 22.4308 48.5694L22.4299 48.571C22.1205 49.1041 21.6528 49.5278 21.0917 49.7831C18.8025 50.8456 11.7681 54.0878 6.68992 56.3372C5.1442 57.0317 2.98508 57.8287 0.64946 58.6394C0.394335 58.7279 0.115726 58.5929 0.0271704 58.3378C-0.0613855 58.0827 0.0736457 57.8041 0.328771 57.7155C2.66267 56.9054 4.78715 56.1201 6.29049 55.4446L6.29288 55.4435C11.3643 53.197 18.3955 49.9563 20.6818 48.8952L20.6854 48.8935C21.0619 48.7225 21.3758 48.4385 21.5835 48.081L21.584 48.0801L21.589 48.0714C21.9023 47.5268 22.3979 46.6651 23.046 45.8354C23.6935 45.0064 24.5268 44.1646 25.5303 43.7114L25.5402 43.7069L25.5403 43.707C28.9612 42.2534 32.6628 41.5804 36.376 41.7366C37.4134 41.5726 38.433 41.3107 39.421 40.9544C39.8766 40.7429 40.3368 40.4848 40.7817 40.2353L40.7848 40.2335L40.8809 40.1797L41.0178 40.1031C41.51 39.8286 42.0231 39.55 42.4268 39.4479C43.196 39.2407 44.6922 39.1368 46.0398 39.2542C46.7183 39.3133 47.3951 39.4313 47.9424 39.6389C48.4638 39.8368 49.0069 40.1699 49.1758 40.7491C49.4474 41.6802 49.0517 42.6037 48.2747 43.3939C47.497 44.1848 46.2781 44.9136 44.6936 45.5207C44.1366 45.7352 42.9742 46.0556 41.9807 46.3163C41.7791 46.3691 41.5829 46.42 41.3979 46.4675C43.8628 47.2129 46.2788 48.1108 48.6321 49.1559C48.6394 49.1546 48.6468 49.1535 48.6542 49.1526C50.0348 48.9767 51.4251 48.8884 52.8168 48.8881H52.8238V48.8882C54.3677 48.91 55.9031 49.1186 57.3965 49.5096L57.7184 49.4472C58.1323 49.3665 58.4964 49.2943 58.757 49.2423L58.9313 49.2074C59.0546 48.9582 59.1894 48.6979 59.3352 48.4347C59.8591 47.4886 60.5492 46.4578 61.3848 45.7756C61.3962 45.7663 61.408 45.7575 61.4202 45.7492C61.8248 45.4758 62.2711 45.2733 62.74 45.1489C62.7514 45.1241 62.7646 45.0953 62.7798 45.0627C62.8354 44.9432 62.9166 44.7731 63.02 44.568C63.2266 44.1584 63.5239 43.6053 63.886 43.0349C64.2466 42.4666 64.6797 41.868 65.1601 41.3755C65.6328 40.8909 66.1946 40.4638 66.8189 40.3138L66.8281 40.3116C67.1865 40.2328 67.5493 40.1753 67.9145 40.1389C68.2571 40.1012 68.7507 40.0999 69.1995 40.1998C69.6063 40.2904 70.1991 40.5167 70.3661 41.1104C70.3996 41.2295 70.3867 41.3569 70.33 41.4668L70.2462 41.6299L70.1681 41.7818L70.0192 42.0725L69.89 42.3253C70.4543 42.1981 71.036 42.1528 71.6172 42.1927C71.6391 42.1942 71.6608 42.1972 71.6822 42.2016C72.1469 42.2972 72.5805 42.5067 72.9441 42.8114C73.3077 43.1161 73.5899 43.5064 73.7652 43.9471C73.842 44.14 73.7886 44.3603 73.632 44.4967L67.9234 49.4683C69.747 49.5469 70.7525 50.0839 71.2732 50.7821C71.5862 51.2016 71.6876 51.6358 71.7108 51.9613C71.7224 52.1239 71.7147 52.2616 71.7036 52.3615C71.698 52.4116 71.6915 52.4528 71.6858 52.4834C71.683 52.4988 71.6804 52.5116 71.6783 52.5216L71.6754 52.5345L71.6743 52.5394L71.6738 52.5414L71.6735 52.5423C71.6734 52.5427 71.6733 52.5432 71.1985 52.4265L71.6733 52.5432C71.6291 52.7233 71.4867 52.8629 71.3058 52.9036L63.2637 54.7126ZM66.7909 50.4545C69.2533 50.3232 70.1563 50.9202 70.4893 51.3667C70.6645 51.6016 70.7217 51.8429 70.7352 52.0295L64.238 53.491C64.7177 52.884 65.1739 52.2996 65.5174 51.8578C65.7012 51.6214 65.8528 51.4257 65.9584 51.2891L66.124 51.0746C66.1443 51.0482 66.1619 51.0196 66.1765 50.9896L66.7909 50.4545ZM72.7043 44.0078L66.7987 49.1509C67.1091 48.2597 67.4798 47.2484 67.7743 46.5969C68.0843 45.9112 68.7109 44.6521 69.2697 43.5463C69.9791 43.2489 70.7478 43.1187 71.5163 43.1662C71.8104 43.2319 72.0847 43.3672 72.316 43.561C72.4687 43.689 72.5996 43.8399 72.7043 44.0078ZM51.3217 51.2062C52.4436 50.7075 53.6059 50.305 54.7962 50.0033C54.139 49.9215 53.4771 49.8756 52.8135 49.8661C51.93 49.8664 51.047 49.9032 50.1669 49.9765C50.6059 50.333 50.9942 50.7467 51.3217 51.2062Z" fill="black"/>
</svg>
