<svg xmlns="http://www.w3.org/2000/svg" fill="none" viewBox="0 0 74 74" height="74" width="74">
<g clip-path="url(#clip0_12377_13920)">
<path fill="black" d="M61.8901 10.89C61.8901 8.05001 57.3801 1 57.3801 1C57.3801 1 52.8701 8.04001 52.8701 10.89C52.8701 13.74 54.8701 16.05 57.3801 16.05C59.8901 16.05 61.8901 13.73 61.8901 10.89ZM56.9015 0.122894C57.0482 0.0425284 57.2128 0.000278738 57.3801 0C57.5475 0.000278738 57.712 0.0425284 57.8588 0.122894C58.0055 0.20326 58.1298 0.319165 58.2202 0.459991C58.7002 1.20999 62.8901 7.84001 62.8901 10.89C62.8901 14.29 60.4201 17.05 57.3801 17.05C54.3401 17.05 51.8701 14.29 51.8701 10.89C51.8701 7.84001 56.0602 1.20999 56.5402 0.459991C56.6305 0.319165 56.7547 0.20326 56.9015 0.122894ZM43.2495 8.51978C43.2495 8.51978 47.7595 15.5698 47.7595 18.4198C47.7595 21.2698 45.7595 23.5698 43.2495 23.5698C40.7395 23.5698 38.7295 21.2598 38.7295 18.4198C38.7295 15.5798 43.2495 8.51978 43.2495 8.51978ZM43.2495 7.51978C43.0795 7.51944 42.9123 7.56242 42.7636 7.64466C42.6148 7.72689 42.4895 7.84567 42.3995 7.98978C41.9295 8.72978 37.7295 15.3698 37.7295 18.4198C37.7295 21.8098 40.2095 24.5698 43.2495 24.5698C46.2895 24.5698 48.7595 21.8098 48.7595 18.4198C48.7595 15.3698 44.5695 8.72978 44.0895 7.98978C44.0003 7.8471 43.8766 7.72922 43.7297 7.64707C43.5829 7.56491 43.4177 7.52113 43.2495 7.51978ZM-0.21973 18.849C-0.401314 18.7601 -0.511554 18.5707 -0.499036 18.3689C-0.486508 18.1669 -0.353514 17.9925 -0.162118 17.9269L5.00679e-06 18.3998C-0.162118 17.9269 -0.161954 17.9268 -0.161732 17.9267L-0.16099 17.9265L-0.158442 17.9256L-0.149108 17.9224L-0.113639 17.9105C-0.0825838 17.9001 -0.0367876 17.8849 0.0232816 17.8653C0.143418 17.826 0.320658 17.7692 0.551256 17.6978C1.01243 17.5552 1.68715 17.3548 2.54544 17.1221C4.26178 16.6568 6.71355 16.0623 9.66086 15.5437C15.5508 14.5072 23.4422 13.7694 31.4055 14.9856C31.6785 15.0273 31.866 15.2824 31.8243 15.5553C31.7826 15.8283 31.5275 16.0158 31.2545 15.9741C23.4378 14.7803 15.6642 15.5026 9.83417 16.5285C6.92147 17.0411 4.49949 17.6285 2.80708 18.0873C2.16914 18.2602 1.63506 18.4148 1.21763 18.5402C1.28143 18.5815 1.34816 18.6252 1.4178 18.6714C2.18144 19.1784 3.29373 19.988 4.70907 21.2087C7.52659 23.6388 11.5444 27.6975 16.4034 34.24C16.411 34.2462 16.4185 34.2525 16.4258 34.2592C16.4854 34.3131 16.529 34.3782 16.5563 34.4483C19.0477 37.8859 20.9971 41.6506 22.3639 45.6116C22.3908 45.6292 22.4163 45.6497 22.4401 45.673C22.5837 45.8137 22.6244 46.0197 22.5614 46.1974C24.0223 50.6379 24.7554 55.3147 24.7042 60.0458L51.7761 50.0011L51.7763 50.001C59.077 47.2961 64.6057 47.2861 68.3306 47.9719C69.3283 48.1555 70.1949 48.3888 70.9299 48.6326C67.4147 45.2851 64.268 41.5665 61.5458 37.5399C61.3911 37.3111 61.4512 37.0003 61.68 36.8456C61.9088 36.691 62.2196 36.751 62.3742 36.9798C65.6634 41.845 69.5815 46.2537 74.0268 50.0914C74.1368 50.1864 74.2 50.3245 74.2 50.4698H73.7C73.4047 50.8733 73.405 50.8735 73.4052 50.8737L73.4039 50.8727L73.3925 50.8647C73.3813 50.8569 73.3631 50.8444 73.3379 50.8276C73.2874 50.7941 73.2087 50.7436 73.1019 50.68C72.8882 50.5527 72.562 50.3731 72.1237 50.1719C71.2472 49.7698 69.9217 49.2816 68.1495 48.9553C65.5445 48.4758 61.9616 48.3437 57.406 49.3612L56.3579 50.4093C56.1627 50.6045 55.8461 50.6045 55.6508 50.4093C55.4922 50.2506 55.4624 50.0119 55.5616 49.8232C54.4661 50.1268 53.3202 50.4954 52.1239 50.9386L52.1237 50.9387L24.3639 61.2386C24.2082 61.2964 24.0338 61.273 23.8988 61.1763C23.7637 61.0795 23.6855 60.9219 23.6902 60.7558C23.8213 56.0827 23.1677 51.4544 21.7863 47.0541L20.9452 47.9119C20.7519 48.1091 20.4354 48.1123 20.2382 47.9189C20.041 47.7256 20.0379 47.409 20.2312 47.2119L21.4347 45.9844C20.1519 42.2526 18.3398 38.6986 16.0341 35.437L15.3069 36.2404C15.1216 36.4451 14.8054 36.4609 14.6007 36.2756C14.3959 36.0903 14.3802 35.7741 14.5655 35.5693L15.4329 34.6111C10.6888 28.2538 6.7803 24.3157 4.05595 21.966C2.67129 20.7717 1.59232 19.9876 0.864712 19.5045C0.500892 19.263 0.224857 19.0967 0.0423056 18.992C-0.0489725 18.9397 -0.116888 18.9027 -0.160728 18.8795C-0.182649 18.8679 -0.198552 18.8597 -0.208349 18.8547L-0.218454 18.8496L-0.219333 18.8492L-0.21973 18.849ZM11.4249 39.7842C11.6296 39.9695 11.6453 40.2857 11.46 40.4904L9.15191 43.0404C8.9666 43.2452 8.65041 43.2609 8.44568 43.0756C8.24095 42.8903 8.22521 42.5741 8.41052 42.3694L10.7186 39.8194C10.904 39.6146 11.2201 39.5989 11.4249 39.7842ZM5.26988 46.5842C5.47461 46.7695 5.49035 47.0857 5.30504 47.2904L4.15098 48.5654C3.96566 48.7702 3.64947 48.7859 3.44474 48.6006C3.24001 48.4153 3.22427 48.0991 3.40958 47.8944L4.56364 46.6194C4.74895 46.4146 5.06515 46.3989 5.26988 46.5842ZM15.932 52.3111C16.1292 52.5045 16.1323 52.821 15.939 53.0182L14.4371 54.5501C14.2438 54.7473 13.9272 54.7504 13.73 54.5571C13.5329 54.3638 13.5297 54.0472 13.7231 53.85L15.2249 52.3181C15.4182 52.1209 15.7348 52.1178 15.932 52.3111ZM52.572 54.1952C52.7672 53.9999 52.7672 53.6833 52.572 53.4881C52.3767 53.2928 52.0601 53.2928 51.8649 53.4881L49.5933 55.7596C49.398 55.9549 49.398 56.2715 49.5933 56.4668C49.7886 56.662 50.1052 56.662 50.3004 56.4668L52.572 54.1952ZM46.5145 60.2527C46.7097 60.0574 46.7097 59.7408 46.5145 59.5456C46.3192 59.3503 46.0026 59.3503 45.8074 59.5456L43.5358 61.8171C43.3406 62.0124 43.3406 62.329 43.5358 62.5242C43.7311 62.7195 44.0477 62.7195 44.2429 62.5242L46.5145 60.2527ZM40.457 66.3102C40.6523 66.1149 40.6523 65.7983 40.457 65.6031C40.2617 65.4078 39.9451 65.4078 39.7499 65.6031L37.4783 67.8746C37.2831 68.0699 37.2831 68.3865 37.4783 68.5817C37.6736 68.777 37.9902 68.777 38.1854 68.5817L40.457 66.3102ZM34.3995 72.3677C34.5948 72.1724 34.5948 71.8558 34.3995 71.6606C34.2042 71.4653 33.8876 71.4653 33.6924 71.6606L32.5566 72.7963C32.3613 72.9916 32.3613 73.3082 32.5566 73.5035C32.7519 73.6987 33.0685 73.6987 33.2637 73.5035L34.3995 72.3677ZM54.7 33.02C54.7 31.13 51.7 26.47 51.7 26.47C51.7 26.47 48.7 31.13 48.7 33.02C48.7 33.8156 49.016 34.5787 49.5786 35.1413C50.1412 35.7039 50.9043 36.02 51.7 36.02C52.4956 36.02 53.2587 35.7039 53.8213 35.1413C54.3839 34.5787 54.7 33.8156 54.7 33.02ZM51.2157 25.5905C51.3643 25.51 51.5309 25.4686 51.7 25.47H51.73C51.8973 25.4703 52.0619 25.5125 52.2086 25.5929C52.3554 25.6733 52.4796 25.7892 52.57 25.93C53.09 26.75 55.71 30.95 55.71 33.02C55.71 34.0809 55.2885 35.0983 54.5384 35.8484C53.7882 36.5986 52.7708 37.02 51.71 37.02C50.6491 37.02 49.6317 36.5986 48.8815 35.8484C48.1314 35.0983 47.71 34.0809 47.71 33.02C47.71 30.93 50.33 26.75 50.85 25.93C50.9412 25.7877 51.0671 25.6709 51.2157 25.5905Z" clip-rule="evenodd" fill-rule="evenodd"></path>
</g>
<defs>
<clipPath id="clip0_12377_13920">
<rect fill="white" height="74" width="74"></rect>
</clipPath>
</defs>
</svg>
